[Header]
FileType HTR
DataType HTRS
FileVersion 1
NumSegments 64
NumFrames 4
DataFrameRate 24
EulerRotationOrder ZYX
CalibrationUnits mm
RotationUnits Degrees
GlobalAxisofGravity Y
BoneLengthAxis Y
ScaleFactor 1.0
[SegmentNames&Hierarchy]
Hips	GLOBAL
Spine	Hips
Spine1	Spine
Spine2	Spine1
Neck	Spine2
Head	Neck
LeftEye	Head
RightEye	Head
LeftShoulder	Spine2
LeftArm	LeftShoulder
LeftForeArm	LeftArm
LeftHand	LeftForeArm
LeftHandThumb1	LeftHand
LeftHandThumb2	LeftHandThumb1
LeftHandThumb3	LeftHandThumb2
LeftHandThumb4	LeftHandThumb3
LeftHandIndex1	LeftHand
LeftHandIndex2	LeftHandIndex1
LeftHandIndex3	LeftHandIndex2
LeftHandIndex4	LeftHandIndex3
LeftHandMiddle1	LeftHand
LeftHandMiddle2	LeftHandMiddle1
LeftHandMiddle3	LeftHandMiddle2
LeftHandMiddle4	LeftHandMiddle3
LeftHandRing1	LeftHand
LeftHandRing2	LeftHandRing1
LeftHandRing3	LeftHandRing2
LeftHandRing4	LeftHandRing3
LeftHandPinky1	LeftHand
LeftHandPinky2	LeftHandPinky1
LeftHandPinky3	LeftHandPinky2
LeftHandPinky4	LeftHandPinky3
RightShoulder	Spine2
RightArm	RightShoulder
RightForeArm	RightArm
RightHand	RightForeArm
RightHandPinky1	RightHand
RightHandPinky2	RightHandPinky1
RightHandPinky3	RightHandPinky2
RightHandPinky4	RightHandPinky3
RightHandRing1	RightHand
RightHandRing2	RightHandRing1
RightHandRing3	RightHandRing2
RightHandRing4	RightHandRing3
RightHandMiddle1	RightHand
RightHandMiddle2	RightHandMiddle1
RightHandMiddle3	RightHandMiddle2
RightHandMiddle4	RightHandMiddle3
RightHandIndex1	RightHand
RightHandIndex2	RightHandIndex1
RightHandIndex3	RightHandIndex2
RightHandIndex4	RightHandIndex3
RightHandThumb1	RightHand
RightHandThumb2	RightHandThumb1
RightHandThumb3	RightHandThumb2
RightHandThumb4	RightHandThumb3
LeftUpLeg	Hips
LeftLeg	LeftUpLeg
LeftFoot	LeftLeg
LeftToeBase	LeftFoot
RightUpLeg	Hips
RightLeg	RightUpLeg
RightFoot	RightLeg
RightToeBase	RightFoot
[BasePosition]
Hips	0	0	0	0	0	0	1
Spine	0	0	0	0	0	0	1
Spine1	0	0	0	0	0	0	1
Spine2	0	0	0	0	0	0	1
Neck	0	0	0	0	0	0	1
Head	0	0	0	0	0	0	1
LeftEye	0	0	0	0	0	0	1
RightEye	0	0	0	0	0	0	1
LeftShoulder	0	0	0	0	0	0	1
LeftArm	0	0	0	0	0	0	1
LeftForeArm	0	0	0	0	0	0	1
LeftHand	0	0	0	0	0	0	1
LeftHandThumb1	0	0	0	0	0	0	1
LeftHandThumb2	0	0	0	0	0	0	1
LeftHandThumb3	0	0	0	0	0	0	1
LeftHandThumb4	0	0	0	0	0	0	1
LeftHandIndex1	0	0	0	0	0	0	1
LeftHandIndex2	0	0	0	0	0	0	1
LeftHandIndex3	0	0	0	0	0	0	1
LeftHandIndex4	0	0	0	0	0	0	1
LeftHandMiddle1	0	0	0	0	0	0	1
LeftHandMiddle2	0	0	0	0	0	0	1
LeftHandMiddle3	0	0	0	0	0	0	1
LeftHandMiddle4	0	0	0	0	0	0	1
LeftHandRing1	0	0	0	0	0	0	1
LeftHandRing2	0	0	0	0	0	0	1
LeftHandRing3	0	0	0	0	0	0	1
LeftHandRing4	0	0	0	0	0	0	1
LeftHandPinky1	0	0	0	0	0	0	1
LeftHandPinky2	0	0	0	0	0	0	1
LeftHandPinky3	0	0	0	0	0	0	1
LeftHandPinky4	0	0	0	0	0	0	1
RightShoulder	0	0	0	0	0	0	1
RightArm	0	0	0	0	0	0	1
RightForeArm	0	0	0	0	0	0	1
RightHand	0	0	0	0	0	0	1
RightHandPinky1	0	0	0	0	0	0	1
RightHandPinky2	0	0	0	0	0	0	1
RightHandPinky3	0	0	0	0	0	0	1
RightHandPinky4	0	0	0	0	0	0	1
RightHandRing1	0	0	0	0	0	0	1
RightHandRing2	0	0	0	0	0	0	1
RightHandRing3	0	0	0	0	0	0	1
RightHandRing4	0	0	0	0	0	0	1
RightHandMiddle1	0	0	0	0	0	0	1
RightHandMiddle2	0	0	0	0	0	0	1
RightHandMiddle3	0	0	0	0	0	0	1
RightHandMiddle4	0	0	0	0	0	0	1
RightHandIndex1	0	0	0	0	0	0	1
RightHandIndex2	0	0	0	0	0	0	1
RightHandIndex3	0	0	0	0	0	0	1
RightHandIndex4	0	0	0	0	0	0	1
RightHandThumb1	0	0	0	0	0	0	1
RightHandThumb2	0	0	0	0	0	0	1
RightHandThumb3	0	0	0	0	0	0	1
RightHandThumb4	0	0	0	0	0	0	1
LeftUpLeg	0	0	0	0	0	0	1
LeftLeg	0	0	0	0	0	0	1
LeftFoot	0	0	0	0	0	0	1
LeftToeBase	0	0	0	0	0	0	1
RightUpLeg	0	0	0	0	0	0	1
RightLeg	0	0	0	0	0	0	1
RightFoot	0	0	0	0	0	0	1
RightToeBase	0	0	0	0	0	0	1
[Hips]
10	-41.69300842	1027.332886	-85.90945435	-4.490176201	27.15446091	-3.031358242	1.0
11	-38.04402924	1024.041504	-96.03455353	-5.062929153	29.64580536	-3.137592793	1.0
12	-37.41043091	1020.682983	-103.4404449	-5.313925743	32.86207581	-2.505599499	1.0
13	-37.18419647	1020.006592	-108.0519867	-6.206140518	36.99014282	-2.839355946	1.0
[Spine]
10	0	101.8159943	1.315000057	3.483902931	3.705835819	1.884681702	1.0
11	0	101.8159943	1.315000057	3.359276533	3.779371262	2.302285671	1.0
12	0	101.8159943	1.315000057	3.378130436	3.49751544	2.061364412	1.0
13	0	101.8159943	1.315000057	3.462636948	3.013279438	2.149031162	1.0
[Spine1]
10	0	100.8349991	-10.00800037	1.461381316	2.419816732	4.928010464	1.0
11	0	100.8349991	-10.00800037	1.248178124	2.599241018	4.993920803	1.0
12	0	100.8349991	-10.00800037	1.174412727	2.452720881	5.033353806	1.0
13	0	100.8349991	-10.00800037	1.185839057	2.094522953	5.172261715	1.0
[Spine2]
10	0	91	-13.73399925	1.31079495	2.14840579	1.762400031	1.0
11	0	91	-13.73399925	1.083677292	2.28013134	1.449795604	1.0
12	0	91	-13.73399925	1.018041134	2.107605457	1.173423648	1.0
13	0	91	-13.73399925	1.058231831	1.735112906	1.072230339	1.0
[Neck]
10	0	166.7169952	-25.16200066	8.097371101	8.907924652	-1.496228576	1.0
11	0	166.7169952	-25.16200066	8.030489922	8.4637537	-1.443091154	1.0
12	0	166.7169952	-25.16200066	7.826130867	7.879179001	-1.229026556	1.0
13	0	166.7169952	-25.16200066	7.628330708	7.114420891	-0.9678055644	1.0
[Head]
10	0	96.17900085	16.84999847	-2.962931395	26.83749199	-9.412068367	1.0
11	0	96.17900085	16.84999847	-2.903915644	26.61371994	-9.545168877	1.0
12	0	96.17900085	16.84999847	-3.054736853	26.31988907	-9.775024414	1.0
13	0	96.17900085	16.84999847	-3.517919779	25.48888779	-10.21965122	1.0
[LeftEye]
10	30.6760006	64.09500122	92.83599854	0	0	0	1.0
11	30.6760006	64.09500122	92.83599854	0	0	0	1.0
12	30.6760006	64.09500122	92.83599854	0	0	0	1.0
13	30.6760006	64.09500122	92.83599854	0	0	0	1.0
[RightEye]
10	-30.6760006	64.09500122	92.83499908	0	0	0	1.0
11	-30.6760006	64.09500122	92.83499908	0	0	0	1.0
12	-30.6760006	64.09500122	92.83499908	0	0	0	1.0
13	-30.6760006	64.09500122	92.83499908	0	0	0	1.0
[LeftShoulder]
10	45.70400238	109.4599991	-26.28000069	5.629104137	-15.01278114	-18.60502243	1.0
11	45.70400238	109.4599991	-26.28000069	5.810896873	-12.93872833	-19.33304214	1.0
12	45.70400238	109.4599991	-26.28000069	5.944775581	-10.66608906	-19.79332352	1.0
13	45.70400238	109.4599991	-26.28000069	6.109848022	-8.743693352	-20.17041206	1.0
[LeftArm]
10	105.923996	-5.24600029	-22.32099915	14.34107304	-0.5611786246	-56.84340668	1.0
11	105.923996	-5.24600029	-22.32099915	15.77725697	1.414938927	-57.53735733	1.0
12	105.923996	-5.24600029	-22.32099915	17.79636002	2.537355185	-58.57699966	1.0
13	105.923996	-5.24600029	-22.32099915	20.07972336	2.868275166	-59.62312317	1.0
[LeftForeArm]
10	278.414978	-0.0009999999311	0	-1.5825741e-06	-22.94493484	-0.0002099848643	1.0
11	278.414978	-0.0009999999311	0	2.31970148e-06	-23.35464096	-0.0002026390575	1.0
12	278.414978	-0.0009999999311	0	-4.655560588e-06	-23.35550117	-0.0001800035534	1.0
13	278.414978	-0.0009999999311	0	7.391257441e-06	-22.96964645	-0.0002386230917	1.0
[LeftHand]
10	283.2879944	0	0	-22.84900665	-1.7638762	13.23515987	1.0
11	283.2879944	0	0	-23.73485184	-1.441453218	12.93144131	1.0
12	283.2879944	0	0	-25.05945206	-1.637165785	12.217453	1.0
13	283.2879944	0	0	-26.75269127	-2.567663431	12.33950901	1.0
[LeftHandThumb1]
10	24.6609993	-15.75	26.8239994	-0.4889881611	2.201389551	4.818526268	1.0
11	24.6609993	-15.75	26.8239994	-0.4889881611	2.201389551	4.818526268	1.0
12	24.6609993	-15.75	26.8239994	-0.4889881611	2.201389551	4.818526268	1.0
13	24.6609993	-15.75	26.8239994	-0.4889881611	2.201389551	4.818526268	1.0
[LeftHandThumb2]
10	32.29800034	-18.64699936	18.64699936	20.88574409	18.42217827	22.98966026	1.0
11	32.29800034	-18.64699936	18.64699936	20.41088295	17.0739212	22.39706993	1.0
12	32.29800034	-18.64699936	18.64699936	20.0825119	16.01333618	21.95124817	1.0
13	32.29800034	-18.64699936	18.64699936	20.21715546	16.4215641	22.09731865	1.0
[LeftHandThumb3]
10	26.52600098	-15.31499958	15.31499958	-12.44561863	4.269004345	8.354816437	1.0
11	26.52600098	-15.31499958	15.31499958	-12.8001585	4.744153976	8.00252533	1.0
12	26.52600098	-15.31499958	15.31499958	-12.90114021	4.947396278	7.805528641	1.0
13	26.52600098	-15.31499958	15.31499958	-12.83631325	4.832307816	7.868227482	1.0
[LeftHandThumb4]
10	19.54599953	-11.28499985	11.28499985	0	0	0	1.0
11	19.54599953	-11.28499985	11.28499985	0	0	0	1.0
12	19.54599953	-11.28499985	11.28499985	0	0	0	1.0
13	19.54599953	-11.28499985	11.28499985	0	0	0	1.0
[LeftHandIndex1]
10	91.09299469	-5.170999527	22.60099792	0.1887183189	-0.6450163722	-8.622748375	1.0
11	91.09299469	-5.170999527	22.60099792	0.1440939158	-0.8121591806	-8.298576355	1.0
12	91.09299469	-5.170999527	22.60099792	0.1632860452	-0.8239039183	-8.056444168	1.0
13	91.09299469	-5.170999527	22.60099792	0.2219527662	-0.7109662294	-8.00332737	1.0
[LeftHandIndex2]
10	36.76399994	0	0	-0.2673228085	1.747156143	-17.39688873	1.0
11	36.76399994	0	0	-0.2673278451	1.747163177	-17.39690399	1.0
12	36.76399994	0	0	-0.2673234642	1.747152686	-17.39688492	1.0
13	36.76399994	0	0	-0.2673176825	1.747162938	-17.39688492	1.0
[LeftHandIndex3]
10	28.83100128	0	0	-0.05772137269	0.8194035888	-8.058787346	1.0
11	28.83100128	0	0	-0.05772377551	0.8193976283	-8.058792114	1.0
12	28.83100128	0	0	-0.05772444978	0.8193997741	-8.058793068	1.0
13	28.83100128	0	0	-0.05771935359	0.8194058537	-8.05878067	1.0
[LeftHandIndex4]
10	23.92700005	0	0	0	0	0	1.0
11	23.92700005	0	0	0	0	0	1.0
12	23.92700005	0	0	0	0	0	1.0
13	23.92700005	0	0	0	0	0	1.0
[LeftHandMiddle1]
10	95.33399963	0	0	-0.8650511503	3.27912569	-16.73909187	1.0
11	95.33399963	0	0	-0.8446183205	3.378098965	-16.44049644	1.0
12	95.33399963	0	0	-0.8308153152	3.418230534	-16.23815346	1.0
13	95.33399963	0	0	-0.827032268	3.298894644	-16.18424225	1.0
[LeftHandMiddle2]
10	36.98199844	0	0	-0.270103693	1.755982041	-17.48764229	1.0
11	36.98199844	0	0	-0.2696063519	1.754413366	-17.4715023	1.0
12	36.98199844	0	0	-0.2689343691	1.752293468	-17.44963646	1.0
13	36.98199844	0	0	-0.2681865394	1.749910116	-17.42522621	1.0
[LeftHandMiddle3]
10	29.50900078	0	0	-0.3017777205	1.853488803	-18.49352455	1.0
11	29.50900078	0	0	-0.3012613356	1.851920962	-18.47734261	1.0
12	29.50900078	0	0	-0.3005507588	1.849803805	-18.4554615	1.0
13	29.50900078	0	0	-0.2997634709	1.847458243	-18.43105698	1.0
[LeftHandMiddle4]
10	28.3390007	0	0	0	0	0	1.0
11	28.3390007	0	0	0	0	0	1.0
12	28.3390007	0	0	0	0	0	1.0
13	28.3390007	0	0	0	0	0	1.0
[LeftHandRing1]
10	91.04499817	-0.4390000105	-18.65100098	-1.250438452	3.624828577	-22.02475929	1.0
11	91.04499817	-0.4390000105	-18.65100098	-1.229346633	3.454373121	-21.75177002	1.0
12	91.04499817	-0.4390000105	-18.65100098	-1.206917167	3.347223759	-21.45825195	1.0
13	91.04499817	-0.4390000105	-18.65100098	-1.202181935	3.413994551	-21.39451599	1.0
[LeftHandRing2]
10	31.54000092	0	0	-0.3853607178	2.086669683	-20.92436981	1.0
11	31.54000092	0	0	-0.3836138844	2.082101822	-20.87641144	1.0
12	31.54000092	0	0	-0.3814281523	2.076395988	-20.81652069	1.0
13	31.54000092	0	0	-0.3813184202	2.076089382	-20.81329727	1.0
[LeftHandRing3]
10	29.37700081	0	0	-0.2821474969	1.793770909	-17.8768177	1.0
11	29.37700081	0	0	-0.2806802094	1.789201617	-17.82964706	1.0
12	29.37700081	0	0	-0.2788273692	1.783430338	-17.77019119	1.0
13	29.37700081	0	0	-0.2787145674	1.78308022	-17.76660538	1.0
[LeftHandRing4]
10	26.47500038	0	0	0	0	0	1.0
11	26.47500038	0	0	0	0	0	1.0
12	26.47500038	0	0	0	0	0	1.0
13	26.47500038	0	0	0	0	0	1.0
[LeftHandPinky1]
10	80.77799988	-4.887000084	-38.06099701	-1.678825974	6.180509567	-27.4264698	1.0
11	80.77799988	-4.887000084	-38.06099701	-1.650059819	6.359998703	-27.05447578	1.0
12	80.77799988	-4.887000084	-38.06099701	-1.631946564	6.304290771	-26.79733467	1.0
13	80.77799988	-4.887000084	-38.06099701	-1.640891194	6.141723633	-26.86117744	1.0
[LeftHandPinky2]
10	36	0	0	-0.2666411102	1.744975686	-17.37447739	1.0
11	36	0	0	-0.2661415339	1.74337554	-17.35802269	1.0
12	36	0	0	-0.2649650872	1.739645958	-17.3197155	1.0
13	36	0	0	-0.2647468746	1.738917351	-17.3121891	1.0
[LeftHandPinky3]
10	21.14200211	0	0	-0.2400279641	1.657549262	-16.47796631	1.0
11	21.14200211	0	0	-0.2395830303	1.656054974	-16.46260071	1.0
12	21.14200211	0	0	-0.2384764105	1.652288079	-16.42413902	1.0
13	21.14200211	0	0	-0.2382276952	1.651485205	-16.41581154	1.0
[LeftHandPinky4]
10	19.75699997	0	0	0	0	0	1.0
11	19.75699997	0	0	0	0	0	1.0
12	19.75699997	0	0	0	0	0	1.0
13	19.75699997	0	0	0	0	0	1.0
[RightShoulder]
10	-45.70000076	109.4620056	-26.28000069	4.889937878	13.52449417	15.06906414	1.0
11	-45.70000076	109.4620056	-26.28000069	4.925198555	13.64979076	15.10570431	1.0
12	-45.70000076	109.4620056	-26.28000069	5.023059845	13.96489143	15.3231945	1.0
13	-45.70000076	109.4620056	-26.28000069	5.097299099	14.17403984	15.61826611	1.0
[RightArm]
10	-105.9280014	-5.248000145	-22.32099915	29.61895943	-8.2573452	50.78147507	1.0
11	-105.9280014	-5.248000145	-22.32099915	29.03458023	-8.959449768	49.47457886	1.0
12	-105.9280014	-5.248000145	-22.32099915	28.19429588	-9.16519165	48.41005707	1.0
13	-105.9280014	-5.248000145	-22.32099915	27.56124878	-9.241009712	47.56297302	1.0
[RightForeArm]
10	-278.414978	0	0	-2.266218644e-06	14.31825447	-1.162921126e-05	1.0
11	-278.414978	0	0	-4.103826541e-06	14.46136093	-8.869097655e-06	1.0
12	-278.414978	0	0	-4.961825198e-06	14.61373615	1.14776492e-06	1.0
13	-278.414978	0	0	-5.144858619e-07	14.93970585	-6.324333754e-06	1.0
[RightHand]
10	-283.2879944	0	0.0009999999311	-26.47200966	-7.951975346	6.497408867	1.0
11	-283.2879944	0	0.0009999999311	-26.85617256	-9.416473389	7.056071758	1.0
12	-283.2879944	0	0.0009999999311	-27.25163078	-10.54357147	7.470767498	1.0
13	-283.2879944	0	0.0009999999311	-27.93457794	-11.06487465	7.198086739	1.0
[RightHandPinky1]
10	-80.76699829	-4.885000229	-38.06000137	-1.603493571	-4.299055576	26.84160042	1.0
11	-80.76699829	-4.885000229	-38.06000137	-1.615502596	-4.280269623	26.94425583	1.0
12	-80.76699829	-4.885000229	-38.06000137	-1.730497479	-3.897883415	27.52279472	1.0
13	-80.76699829	-4.885000229	-38.06000137	-1.762542009	-3.804383516	27.70809364	1.0
[RightHandPinky2]
10	-36	0	0.0009999999311	-0.2156970203	-1.398188472	17.55841064	1.0
11	-36	0	0.0009999999311	-0.2152756602	-1.396816134	17.54065132	1.0
12	-36	0	0.0009999999311	-0.2146926224	-1.394996047	17.51716614	1.0
13	-36	0	0.0009999999311	-0.2164232135	-1.40046227	17.58802223	1.0
[RightHandPinky3]
10	-21.14200211	0	0	-0.1944940388	-1.329276323	16.64809799	1.0
11	-21.14200211	0	0	-0.1940684617	-1.327839851	16.62969208	1.0
12	-21.14200211	0	0	-0.193304792	-1.325260162	16.59666443	1.0
13	-21.14200211	0	0	-0.1948891431	-1.330588937	16.66508675	1.0
[RightHandPinky4]
10	-19.75699997	0	0	0	0	0	1.0
11	-19.75699997	0	0	0	0	0	1.0
12	-19.75699997	0	0	0	0	0	1.0
13	-19.75699997	0	0	0	0	0	1.0
[RightHandRing1]
10	-91.03599548	-0.4390000105	-18.65100098	-1.070174336	-2.732956171	20.8580513	1.0
11	-91.03599548	-0.4390000105	-18.65100098	-1.077705145	-2.719745874	20.97201538	1.0
12	-91.03599548	-0.4390000105	-18.65100098	-1.116638899	-2.636126995	21.55808067	1.0
13	-91.03599548	-0.4390000105	-18.65100098	-1.136692047	-2.618162394	21.85690117	1.0
[RightHandRing2]
10	-31.54000092	0	0	-0.3055898547	-1.655879378	20.91119385	1.0
11	-31.54000092	0	0	-0.3056569397	-1.656015754	20.91328049	1.0
12	-31.54000092	0	0	-0.306424439	-1.658038378	20.94002342	1.0
13	-31.54000092	0	0	-0.3070751727	-1.659732699	20.96245956	1.0
[RightHandRing3]
10	-29.37700081	0	0	-0.2235956341	-1.422941446	17.85988235	1.0
11	-29.37700081	0	0	-0.2236611694	-1.423102379	17.86196136	1.0
12	-29.37700081	0	0	-0.2243245989	-1.425186038	17.8889389	1.0
13	-29.37700081	0	0	-0.2248814106	-1.426917911	17.91144943	1.0
[RightHandRing4]
10	-26.47500038	0	0	0	0	0	1.0
11	-26.47500038	0	0	0	0	0	1.0
12	-26.47500038	0	0	0	0	0	1.0
13	-26.47500038	0	0	0	0	0	1.0
[RightHandMiddle1]
10	-95.32500458	0	0	-0.7030264735	-2.202832699	15.03422832	1.0
11	-95.32500458	0	0	-0.701667428	-2.245461226	15.01062012	1.0
12	-95.32500458	0	0	-0.7244241238	-2.356281996	15.38882732	1.0
13	-95.32500458	0	0	-0.7350975871	-2.415683746	15.56516552	1.0
[RightHandMiddle2]
10	-36.98199844	0	0	-0.2148126811	-1.395385265	17.50256729	1.0
11	-36.98199844	0	0	-0.2149172276	-1.395718575	17.50699425	1.0
12	-36.98199844	0	0	-0.2161138505	-1.399517894	17.55608559	1.0
13	-36.98199844	0	0	-0.2165151983	-1.400769234	17.57220459	1.0
[RightHandMiddle3]
10	-29.50900078	0	0	-0.2400625646	-1.475062609	18.51128006	1.0
11	-29.50900078	0	0	-0.2401726097	-1.47538197	18.51551819	1.0
12	-29.50900078	0	0	-0.2414178401	-1.479128361	18.56425095	1.0
13	-29.50900078	0	0	-0.2418297976	-1.480340123	18.58019638	1.0
[RightHandMiddle4]
10	-28.3390007	0	0.0009999999311	0	0	0	1.0
11	-28.3390007	0	0.0009999999311	0	0	0	1.0
12	-28.3390007	0	0.0009999999311	0	0	0	1.0
13	-28.3390007	0	0.0009999999311	0	0	0	1.0
[RightHandIndex1]
10	-91.08300018	-5.167999744	22.60099792	0.1528299451	1.205148697	7.491878986	1.0
11	-91.08300018	-5.167999744	22.60099792	0.1659763455	1.23432219	7.174924374	1.0
12	-91.08300018	-5.167999744	22.60099792	0.1318061799	1.292212129	7.197832108	1.0
13	-91.08300018	-5.167999744	22.60099792	0.1180992946	1.2252388	7.747423172	1.0
[RightHandIndex2]
10	-36.76399994	0	0	-0.2120860368	-1.386696935	17.39014053	1.0
11	-36.76399994	0	0	-0.2126056999	-1.388345957	17.41146851	1.0
12	-36.76399994	0	0	-0.2110040635	-1.383251786	17.34524345	1.0
13	-36.76399994	0	0	-0.2104040682	-1.381333828	17.32073402	1.0
[RightHandIndex3]
10	-28.83100128	0	0	-0.04556493089	-0.6487247348	8.035979271	1.0
11	-28.83100128	0	0	-0.04581127688	-0.6504238248	8.057311058	1.0
12	-28.83100128	0	0	-0.04506575316	-0.6451094151	7.991127968	1.0
13	-28.83100128	0	0	-0.0447861366	-0.6431325078	7.966628551	1.0
[RightHandIndex4]
10	-23.92700005	0	0	0	0	0	1.0
11	-23.92700005	0	0	0	0	0	1.0
12	-23.92700005	0	0	0	0	0	1.0
13	-23.92700005	0	0	0	0	0	1.0
[RightHandThumb1]
10	-24.64799881	-15.72700024	26.82600021	-1.658465981	-0.2891423702	-4.221325874	1.0
11	-24.64799881	-15.72700024	26.82600021	-1.658465981	-0.2891423702	-4.221325874	1.0
12	-24.64799881	-15.72700024	26.82600021	-1.658465981	-0.2891423702	-4.221325874	1.0
13	-24.64799881	-15.72700024	26.82600021	-1.658465981	-0.2891423702	-4.221325874	1.0
[RightHandThumb2]
10	-32.29800034	-18.64699936	18.64699936	22.22240067	-23.19166565	-23.97114182	1.0
11	-32.29800034	-18.64699936	18.64699936	22.39255524	-22.95174026	-23.90849876	1.0
12	-32.29800034	-18.64699936	18.64699936	22.57048988	-22.27845955	-23.61423492	1.0
13	-32.29800034	-18.64699936	18.64699936	22.74869156	-22.22590828	-23.51820946	1.0
[RightHandThumb3]
10	-26.52600098	-15.31399918	15.31399918	-14.49492264	-6.727201462	-11.36929703	1.0
11	-26.52600098	-15.31399918	15.31399918	-14.49101257	-6.707763195	-11.37823486	1.0
12	-26.52600098	-15.31399918	15.31399918	-14.46460342	-6.646479607	-11.41352177	1.0
13	-26.52600098	-15.31399918	15.31399918	-14.45497608	-6.630427837	-11.42359638	1.0
[RightHandThumb4]
10	-19.54599953	-11.28499985	11.28499985	0	0	0	1.0
11	-19.54599953	-11.28499985	11.28499985	0	0	0	1.0
12	-19.54599953	-11.28499985	11.28499985	0	0	0	1.0
13	-19.54599953	-11.28499985	11.28499985	0	0	0	1.0
[LeftUpLeg]
10	82.07800293	-67.51699829	-15.99599934	-7.748729229	37.2959137	9.802686691	1.0
11	82.07800293	-67.51699829	-15.99599934	-9.744595528	37.27477646	6.978579044	1.0
12	82.07800293	-67.51699829	-15.99599934	-11.25950718	36.41827011	5.125025272	1.0
13	82.07800293	-67.51699829	-15.99599934	-12.12668324	35.5963707	4.131291389	1.0
[LeftLeg]
10	0	-443.7049866	2.845999956	21.71630859	7.870353222	3.532109022	1.0
11	0	-443.7049866	2.845999956	21.83343887	6.149147511	6.601176739	1.0
12	0	-443.7049866	2.845999956	23.17677498	6.615966797	7.949104786	1.0
13	0	-443.7049866	2.845999956	23.42455864	6.833850384	9.322036743	1.0
[LeftFoot]
10	0	-444.2789917	-29.8219986	-11.02081871	27.57444191	-8.437495232	1.0
11	0	-444.2789917	-29.8219986	-6.887514591	27.19184875	-8.951016426	1.0
12	0	-444.2789917	-29.8219986	-6.434513569	24.11978722	-8.397489548	1.0
13	0	-444.2789917	-29.8219986	-5.860311031	20.26638222	-7.736406803	1.0
[LeftToeBase]
10	0	-87.28699493	107.1060028	-7.900712013	4.650172286e-06	1.605714488e-06	1.0
11	0	-87.28699493	107.1060028	-5.276291847	1.073932981e-05	1.917643431e-06	1.0
12	0	-87.28699493	107.1060028	-4.928525925	-4.460042692e-05	4.240037015e-06	1.0
13	0	-87.28699493	107.1060028	-4.928527832	1.152200457e-05	3.297200522e-07	1.0
[RightUpLeg]
10	-82.07800293	-67.51699829	-15.99599934	-9.210283279	-43.63164139	5.516723633	1.0
11	-82.07800293	-67.51699829	-15.99599934	-11.46292496	-40.69071579	4.906269073	1.0
12	-82.07800293	-67.51699829	-15.99599934	-16.30101013	-25.51426315	2.549077272	1.0
13	-82.07800293	-67.51699829	-15.99599934	-18.92043304	-20.98584366	0.4151356518	1.0
[RightLeg]
10	0	-443.7049866	2.861999989	14.81602573	-8.916713715	-5.700888634	1.0
11	0	-443.7049866	2.861999989	19.80113602	-8.29114151	-6.514622688	1.0
12	0	-443.7049866	2.861999989	32.49353027	-7.653786182	-6.339920044	1.0
13	0	-443.7049866	2.861999989	40.53815842	-5.689792156	-1.887681007	1.0
[RightFoot]
10	0	-444.2770081	-29.83799934	-5.216529369	-1.734147549	0.1214976981	1.0
11	0	-444.2770081	-29.83799934	-5.549214363	-6.998923779	0.2371936142	1.0
12	0	-444.2770081	-29.83799934	-3.892530441	-23.12273026	-0.4879467785	1.0
13	0	-444.2770081	-29.83799934	1.670421243	-29.93655205	-3.47002387	1.0
[RightToeBase]
10	0	-87.28699493	107.1060028	-7.282876968	1.836855336e-05	-1.327523819e-06	1.0
11	0	-87.28699493	107.1060028	-7.358410358	-7.950869076e-06	-1.627258825e-07	1.0
12	0	-87.28699493	107.1060028	-7.620666981	1.218373654e-05	-1.684525728e-06	1.0
13	0	-87.28699493	107.1060028	-7.613709927	-1.859650547e-05	3.329374522e-06	1.0
[EndOfFile]
